RobotoDelta-XOPQmin-YOPQmin.ufo
<glyph name="exclam" format="1">
  <advance width="620"/>
  <unicode hex="0021"/>
  <outline>
    <contour>
      <point x="227" y="411" type="line"/>
      <point x="213" y="1456" type="line"/>
      <point x="406" y="1456" type="line"/>
      <point x="393" y="411" type="line"/>
    </contour>
    <contour>
      <point x="189" y="94" type="qcurve" smooth="yes"/>
      <point x="189" y="143"/>
      <point x="249" y="212"/>
      <point x="309" y="212" type="qcurve" smooth="yes"/>
      <point x="368" y="212"/>
      <point x="431" y="143"/>
      <point x="431" y="94" type="qcurve" smooth="yes"/>
      <point x="431" y="46"/>
      <point x="368" y="-22"/>
      <point x="309" y="-22" type="qcurve" smooth="yes"/>
      <point x="249" y="-22"/>
      <point x="189" y="46"/>
    </contour>
  </outline>
</glyph>
<glyph name="quotedbl" format="1">
  <advance width="544"/>
  <unicode hex="0022"/>
  <outline>
    <contour>
      <point x="106" y="1162" type="line"/>
      <point x="166" y="1162" type="line"/>
      <point x="172" y="1374" type="line"/>
      <point x="172" y="1456" type="line"/>
      <point x="100" y="1456" type="line"/>
      <point x="100" y="1374" type="line"/>
    </contour>
    <contour>
      <point x="378" y="1162" type="line"/>
      <point x="438" y="1162" type="line"/>
      <point x="444" y="1374" type="line"/>
      <point x="444" y="1456" type="line"/>
      <point x="372" y="1456" type="line"/>
      <point x="372" y="1374" type="line"/>
    </contour>
  </outline>
</glyph>
<glyph name="ampersand" format="1">
  <advance width="994"/>
  <unicode hex="0026"/>
  <outline>
    <contour>
      <point x="80" y="380" type="qcurve" smooth="yes"/>
      <point x="80" y="210"/>
      <point x="260" y="-20"/>
      <point x="420" y="-20" type="qcurve" smooth="yes"/>
      <point x="630" y="-20"/>
      <point x="914" y="380"/>
      <point x="914" y="674" type="qcurve"/>
      <point x="860" y="674" type="line"/>
      <point x="860" y="380"/>
      <point x="600" y="30"/>
      <point x="420" y="30" type="qcurve" smooth="yes"/>
      <point x="290" y="30"/>
      <point x="134" y="230"/>
      <point x="134" y="380" type="qcurve" smooth="yes"/>
      <point x="134" y="500"/>
      <point x="263" y="685"/>
      <point x="385" y="775" type="qcurve" smooth="yes"/>
      <point x="500" y="860" type="line" smooth="yes"/>
      <point x="581" y="920"/>
      <point x="674" y="1080"/>
      <point x="674" y="1180" type="qcurve" smooth="yes"/>
      <point x="674" y="1310"/>
      <point x="550" y="1486"/>
      <point x="445" y="1486" type="qcurve" smooth="yes"/>
      <point x="340" y="1486"/>
      <point x="208" y="1300"/>
      <point x="208" y="1160" type="qcurve" smooth="yes"/>
      <point x="208" y="1070"/>
      <point x="261" y="922"/>
      <point x="360" y="780" type="qcurve" smooth="yes"/>
      <point x="904" y="0" type="line"/>
      <point x="970" y="0" type="line"/>
      <point x="405" y="805" type="line" smooth="yes"/>
      <point x="315" y="933"/>
      <point x="262" y="1082"/>
      <point x="262" y="1160" type="qcurve" smooth="yes"/>
      <point x="262" y="1270"/>
      <point x="360" y="1436"/>
      <point x="445" y="1436" type="qcurve" smooth="yes"/>
      <point x="530" y="1436"/>
      <point x="620" y="1280"/>
      <point x="620" y="1180" type="qcurve" smooth="yes"/>
      <point x="620" y="1090"/>
      <point x="538" y="950"/>
      <point x="470" y="900" type="qcurve" smooth="yes"/>
      <point x="355" y="815" type="line" smooth="yes"/>
      <point x="233" y="725"/>
      <point x="80" y="520"/>
    </contour>
  </outline>
</glyph>
<glyph name="two" format="1">
  <advance width="918"/>
  <unicode hex="0032"/>
  <outline>
    <contour>
      <point x="102" y="0" type="line"/>
      <point x="837" y="0" type="line"/>
      <point x="837" y="51" type="line"/>
      <point x="155" y="51" type="line"/>
      <point x="598" y="630" type="line" smooth="yes"/>
      <point x="681" y="746"/>
      <point x="773" y="937"/>
      <point x="773" y="1071" type="qcurve" smooth="yes"/>
      <point x="773" y="1251"/>
      <point x="619" y="1476"/>
      <point x="458" y="1476" type="qcurve" smooth="yes"/>
      <point x="297" y="1476"/>
      <point x="130" y="1248"/>
      <point x="130" y="1035" type="qcurve" smooth="yes"/>
      <point x="130" y="1028" type="line"/>
      <point x="182" y="1028" type="line"/>
      <point x="182" y="1067" type="line" smooth="yes"/>
      <point x="182" y="1214"/>
      <point x="341" y="1425"/>
      <point x="461" y="1425" type="qcurve" smooth="yes"/>
      <point x="578" y="1425"/>
      <point x="719" y="1261"/>
      <point x="719" y="1097" type="qcurve" smooth="yes"/>
      <point x="719" y="960"/>
      <point x="628" y="758"/>
      <point x="551" y="654" type="qcurve" smooth="yes"/>
      <point x="102" y="49" type="line"/>
    </contour>
  </outline>
</glyph>
<glyph name="four" format="1">
  <advance width="1021"/>
  <unicode hex="0034"/>
  <outline>
    <contour>
      <point x="724" y="0" type="line"/>
      <point x="782" y="0" type="line"/>
      <point x="782" y="1456" type="line"/>
      <point x="743" y="1456" type="line"/>
      <point x="53" y="462" type="line"/>
      <point x="53" y="372" type="line"/>
      <point x="974" y="372" type="line"/>
      <point x="974" y="423" type="line"/>
      <point x="782" y="423" type="line"/>
      <point x="758" y="423" type="line"/>
      <point x="90" y="423" type="line"/>
      <point x="712" y="1314" type="line"/>
      <point x="724" y="1314" type="line"/>
      <point x="724" y="408" type="line"/>
      <point x="724" y="390" type="line"/>
    </contour>
  </outline>
</glyph>
<glyph name="six" format="1">
  <advance width="1156"/>
  <unicode hex="0036"/>
  <outline>
    <contour>
      <point x="222" y="614" type="line" smooth="yes"/>
      <point x="222" y="274.0"/>
      <point x="445" y="-30"/>
      <point x="600" y="-30" type="qcurve" smooth="yes"/>
      <point x="755" y="-30"/>
      <point x="948.0" y="244.0"/>
      <point x="948" y="464" type="qcurve" smooth="yes"/>
      <point x="948.0" y="666.1138211382113"/>
      <point x="765" y="916"/>
      <point x="610" y="916" type="qcurve" smooth="yes"/>
      <point x="455" y="916"/>
      <point x="240" y="660"/>
      <point x="240" y="464" type="qcurve"/>
      <point x="270" y="464" type="line"/>
      <point x="270" y="630"/>
      <point x="470" y="866"/>
      <point x="600" y="866" type="qcurve" smooth="yes"/>
      <point x="740" y="866"/>
      <point x="894.0" y="656.5748502994013"/>
      <point x="894" y="464" type="qcurve" smooth="yes"/>
      <point x="894.0" y="252.57142857142858"/>
      <point x="740" y="20"/>
      <point x="600" y="20" type="qcurve" smooth="yes"/>
      <point x="460" y="20"/>
      <point x="276" y="285.00840336134456"/>
      <point x="276" y="604" type="qcurve" smooth="yes"/>
      <point x="276" y="654" type="line" smooth="yes"/>
      <point x="276" y="1020"/>
      <point x="550" y="1436"/>
      <point x="780" y="1436" type="qcurve" smooth="yes"/>
      <point x="800" y="1436" type="line"/>
      <point x="800" y="1486" type="line"/>
      <point x="780" y="1486" type="line" smooth="yes"/>
      <point x="520" y="1486"/>
      <point x="222" y="1030"/>
      <point x="222" y="644" type="qcurve" smooth="yes"/>
    </contour>
  </outline>
</glyph>
<glyph name="seven" format="1">
  <advance width="1156"/>
  <unicode hex="0037"/>
  <outline>
    <contour>
      <point x="314" y="0" type="line"/>
      <point x="376" y="0" type="line"/>
      <point x="975" y="1402" type="line"/>
      <point x="975" y="1456" type="line"/>
      <point x="178" y="1456" type="line"/>
      <point x="178" y="1402" type="line"/>
      <point x="918" y="1402" type="line"/>
    </contour>
  </outline>
</glyph>
<glyph name="eight" format="1">
  <advance width="902"/>
  <unicode hex="0038"/>
  <outline>
    <contour>
      <point x="108" y="384" type="qcurve" smooth="yes"/>
      <point x="108" y="169"/>
      <point x="304" y="-30"/>
      <point x="449" y="-30" type="qcurve" smooth="yes"/>
      <point x="594" y="-30"/>
      <point x="794" y="169"/>
      <point x="794" y="384" type="qcurve" smooth="yes"/>
      <point x="794" y="532"/>
      <point x="671" y="717"/>
      <point x="572" y="749" type="qcurve"/>
      <point x="572" y="752" type="line"/>
      <point x="662" y="784"/>
      <point x="748" y="946"/>
      <point x="748" y="1077" type="qcurve" smooth="yes"/>
      <point x="748" y="1283"/>
      <point x="577" y="1478"/>
      <point x="448" y="1478" type="qcurve" smooth="yes"/>
      <point x="319" y="1478"/>
      <point x="150" y="1283"/>
      <point x="150" y="1077" type="qcurve" smooth="yes"/>
      <point x="150" y="946"/>
      <point x="239" y="785"/>
      <point x="325" y="752" type="qcurve"/>
      <point x="325" y="749" type="line"/>
      <point x="229" y="716"/>
      <point x="108" y="533"/>
    </contour>
    <contour>
      <point x="205" y="1101" type="qcurve" smooth="yes"/>
      <point x="205" y="1243"/>
      <point x="342" y="1426"/>
      <point x="448" y="1426" type="qcurve" smooth="yes"/>
      <point x="555" y="1426"/>
      <point x="693" y="1243"/>
      <point x="693" y="1101" type="qcurve" smooth="yes"/>
      <point x="693" y="959"/>
      <point x="555" y="776"/>
      <point x="449" y="776" type="qcurve" smooth="yes"/>
      <point x="343" y="776"/>
      <point x="205" y="959"/>
    </contour>
    <contour>
      <point x="163" y="364" type="qcurve" smooth="yes"/>
      <point x="163" y="518"/>
      <point x="324" y="717"/>
      <point x="449" y="717" type="qcurve" smooth="yes"/>
      <point x="576" y="717"/>
      <point x="739" y="518"/>
      <point x="739" y="364" type="qcurve" smooth="yes"/>
      <point x="739" y="214"/>
      <point x="577" y="20"/>
      <point x="451" y="20" type="qcurve" smooth="yes"/>
      <point x="325" y="20"/>
      <point x="163" y="214"/>
    </contour>
  </outline>
</glyph>
<glyph name="A" format="1">
  <advance width="1140"/>
  <unicode hex="0041"/>
  <outline>
    <contour>
      <point x="0" y="0" type="line"/>
      <point x="538" y="1466" type="line"/>
      <point x="602" y="1466" type="line"/>
      <point x="1140" y="0" type="line"/>
      <point x="1080" y="0" type="line"/>
      <point x="610" y="1288" type="line" smooth="yes"/>
      <point x="598" y="1321"/>
      <point x="580" y="1383"/>
      <point x="573" y="1416" type="qcurve"/>
      <point x="563" y="1416" type="line"/>
      <point x="556" y="1383"/>
      <point x="538" y="1321"/>
      <point x="526" y="1288" type="qcurve" smooth="yes"/>
      <point x="56" y="0" type="line"/>
    </contour>
    <contour>
      <point x="190" y="440" type="line"/>
      <point x="208" y="490" type="line"/>
      <point x="931" y="490" type="line"/>
      <point x="949" y="440" type="line"/>
    </contour>
    <contour>
      <point x="640.0" y="1432.0" type="move" name="top"/>
    </contour>
  </outline>
</glyph>
<glyph name="B" format="1">
  <advance width="991"/>
  <unicode hex="0042"/>
  <outline>
    <contour>
      <point x="170" y="0" type="line"/>
      <point x="170" y="1456" type="line"/>
      <point x="516" y="1456" type="line" smooth="yes"/>
      <point x="676" y="1456"/>
      <point x="853" y="1280"/>
      <point x="853" y="1094" type="qcurve" smooth="yes"/>
      <point x="853" y="964"/>
      <point x="750" y="794"/>
      <point x="671" y="766" type="qcurve"/>
      <point x="671" y="762" type="line"/>
      <point x="770" y="734"/>
      <point x="891" y="544"/>
      <point x="891" y="392" type="qcurve" smooth="yes"/>
      <point x="891" y="206"/>
      <point x="706" y="0"/>
      <point x="546" y="0" type="qcurve" smooth="yes"/>
    </contour>
    <contour>
      <point x="224" y="50" type="line"/>
      <point x="546" y="50" type="line" smooth="yes"/>
      <point x="696" y="50"/>
      <point x="836" y="236"/>
      <point x="836" y="392" type="qcurve" smooth="yes"/>
      <point x="836" y="548"/>
      <point x="696" y="733"/>
      <point x="546" y="733" type="qcurve" smooth="yes"/>
      <point x="224" y="733" type="line"/>
    </contour>
    <contour>
      <point x="224" y="783" type="line"/>
      <point x="516" y="783" type="line" smooth="yes"/>
      <point x="666" y="783"/>
      <point x="798" y="948"/>
      <point x="798" y="1094" type="qcurve" smooth="yes"/>
      <point x="798" y="1244"/>
      <point x="666" y="1406"/>
      <point x="516" y="1406" type="qcurve" smooth="yes"/>
      <point x="224" y="1406" type="line"/>
    </contour>
  </outline>
</glyph>
<glyph name="F" format="1">
  <advance width="882"/>
  <unicode hex="0046"/>
  <outline>
    <contour>
      <point x="170" y="0" type="line"/>
      <point x="224" y="0" type="line"/>
      <point x="224" y="697" type="line"/>
      <point x="735" y="697" type="line"/>
      <point x="735" y="747" type="line"/>
      <point x="224" y="747" type="line"/>
      <point x="224" y="1406" type="line"/>
      <point x="824" y="1406" type="line"/>
      <point x="824" y="1456" type="line"/>
      <point x="170" y="1456" type="line"/>
    </contour>
  </outline>
</glyph>
<glyph name="G" format="1">
  <advance width="1082"/>
  <unicode hex="0047"/>
  <outline>
    <contour>
      <point x="115" y="682" type="line" smooth="yes"/>
      <point x="115" y="346"/>
      <point x="384" y="-30"/>
      <point x="611" y="-30" type="qcurve" smooth="yes"/>
      <point x="751.7007575757576" y="-30.0"/>
      <point x="940" y="70"/>
      <point x="1002" y="140" type="qcurve"/>
      <point x="1002" y="670" type="line"/>
      <point x="591" y="670" type="line"/>
      <point x="591" y="620" type="line"/>
      <point x="952" y="620" type="line"/>
      <point x="952" y="160" type="line"/>
      <point x="880" y="90"/>
      <point x="721" y="20"/>
      <point x="611" y="20" type="qcurve" smooth="yes"/>
      <point x="401" y="20"/>
      <point x="170" y="372"/>
      <point x="170" y="682" type="qcurve" smooth="yes"/>
      <point x="170" y="774" type="line" smooth="yes"/>
      <point x="170" y="1084"/>
      <point x="401" y="1436"/>
      <point x="581" y="1436" type="qcurve" smooth="yes"/>
      <point x="761" y="1436"/>
      <point x="931.9917527779713" y="1180.0824722202865"/>
      <point x="946" y="1040" type="qcurve" smooth="yes"/>
      <point x="947" y="1030" type="line"/>
      <point x="1002" y="1030" type="line"/>
      <point x="1001" y="1040" type="line" smooth="yes"/>
      <point x="983" y="1220"/>
      <point x="777" y="1486"/>
      <point x="581" y="1486" type="qcurve" smooth="yes"/>
      <point x="381" y="1486"/>
      <point x="115" y="1110"/>
      <point x="115" y="774" type="qcurve" smooth="yes"/>
    </contour>
  </outline>
</glyph>
<glyph name="M" format="1">
  <advance width="1530"/>
  <unicode hex="004D"/>
  <outline>
    <contour>
      <point x="170" y="0" type="line"/>
      <point x="170" y="1456" type="line"/>
      <point x="232" y="1456" type="line"/>
      <point x="722" y="200" type="line"/>
      <point x="734" y="170"/>
      <point x="755" y="105"/>
      <point x="763" y="75" type="qcurve"/>
      <point x="771" y="75" type="line"/>
      <point x="779" y="105"/>
      <point x="800" y="170"/>
      <point x="812" y="200" type="qcurve"/>
      <point x="1302" y="1456" type="line"/>
      <point x="1360" y="1456" type="line"/>
      <point x="1360" y="0" type="line"/>
      <point x="1306" y="0" type="line"/>
      <point x="1306" y="1215" type="line"/>
      <point x="1306" y="1245"/>
      <point x="1312" y="1320"/>
      <point x="1316" y="1350" type="qcurve"/>
      <point x="1304" y="1350" type="line"/>
      <point x="1298" y="1320"/>
      <point x="1274" y="1245"/>
      <point x="1262" y="1215" type="qcurve"/>
      <point x="788" y="0" type="line"/>
      <point x="742" y="0" type="line"/>
      <point x="268" y="1215" type="line"/>
      <point x="256" y="1245"/>
      <point x="232" y="1320"/>
      <point x="226" y="1350" type="qcurve"/>
      <point x="214" y="1350" type="line"/>
      <point x="218" y="1320"/>
      <point x="224" y="1245"/>
      <point x="224" y="1215" type="qcurve"/>
      <point x="224" y="0" type="line"/>
    </contour>
  </outline>
</glyph>
<glyph name="N" format="1">
  <advance width="1192"/>
  <unicode hex="004E"/>
  <outline>
    <contour>
      <point x="170" y="0" type="line"/>
      <point x="170" y="1456" type="line"/>
      <point x="236" y="1456" type="line"/>
      <point x="898" y="221" type="line"/>
      <point x="918" y="191"/>
      <point x="952" y="131"/>
      <point x="966" y="106" type="qcurve"/>
      <point x="976" y="106" type="line"/>
      <point x="972" y="136"/>
      <point x="968" y="211"/>
      <point x="968" y="241" type="qcurve"/>
      <point x="968" y="1456" type="line"/>
      <point x="1022" y="1456" type="line"/>
      <point x="1022" y="0" type="line"/>
      <point x="956" y="0" type="line"/>
      <point x="294" y="1235" type="line"/>
      <point x="274" y="1265"/>
      <point x="240" y="1325"/>
      <point x="226" y="1350" type="qcurve"/>
      <point x="216" y="1350" type="line"/>
      <point x="220" y="1320"/>
      <point x="224" y="1245"/>
      <point x="224" y="1215" type="qcurve"/>
      <point x="224" y="0" type="line"/>
    </contour>
    <contour>
      <point x="606.0" y="1432.0" type="move" name="top"/>
    </contour>
  </outline>
</glyph>
<glyph name="P" format="1">
  <advance width="925"/>
  <unicode hex="0050"/>
  <outline>
    <contour>
      <point x="170" y="0" type="line"/>
      <point x="170" y="1456" type="line"/>
      <point x="514" y="1456" type="line" smooth="yes"/>
      <point x="700" y="1456"/>
      <point x="875" y="1220"/>
      <point x="875" y="1038" type="qcurve" smooth="yes"/>
      <point x="875" y="856"/>
      <point x="700" y="620"/>
      <point x="514" y="620" type="qcurve" smooth="yes"/>
      <point x="224" y="620" type="line"/>
      <point x="224" y="0" type="line"/>
    </contour>
    <contour>
      <point x="224" y="670" type="line"/>
      <point x="514" y="670" type="line" smooth="yes"/>
      <point x="684" y="670"/>
      <point x="820" y="880"/>
      <point x="820" y="1038" type="qcurve" smooth="yes"/>
      <point x="820" y="1196"/>
      <point x="684" y="1406"/>
      <point x="514" y="1406" type="qcurve" smooth="yes"/>
      <point x="224" y="1406" type="line"/>
    </contour>
  </outline>
</glyph>
<glyph name="T" format="1">
  <advance width="1038"/>
  <unicode hex="0054"/>
  <outline>
    <contour>
      <point x="24" y="1406" type="line"/>
      <point x="24" y="1456" type="line"/>
      <point x="1014" y="1456" type="line"/>
      <point x="1014" y="1406" type="line"/>
      <point x="546" y="1406" type="line"/>
      <point x="546" y="0" type="line"/>
      <point x="492" y="0" type="line"/>
      <point x="492" y="1406" type="line"/>
    </contour>
  </outline>
</glyph>
<glyph name="V" format="1">
  <advance width="1116"/>
  <unicode hex="0056"/>
  <outline>
    <contour>
      <point x="0" y="1456" type="line"/>
      <point x="60" y="1456" type="line"/>
      <point x="518" y="178" type="line"/>
      <point x="530" y="145"/>
      <point x="548" y="83"/>
      <point x="555" y="50" type="qcurve"/>
      <point x="565" y="50" type="line"/>
      <point x="572" y="83"/>
      <point x="590" y="145"/>
      <point x="602" y="178" type="qcurve"/>
      <point x="1060" y="1456" type="line"/>
      <point x="1116" y="1456" type="line"/>
      <point x="590" y="-10" type="line"/>
      <point x="526" y="-10" type="line"/>
    </contour>
  </outline>
</glyph>
<glyph name="W" format="1">
  <advance width="1817"/>
  <unicode hex="0057"/>
  <outline>
    <contour>
      <point x="53" y="1456" type="line"/>
      <point x="241" y="1456" type="line"/>
      <point x="493" y="358" type="line" smooth="yes"/>
      <point x="500" y="330"/>
      <point x="507" y="266"/>
      <point x="507" y="244" type="qcurve"/>
      <point x="513" y="244" type="line"/>
      <point x="513" y="266"/>
      <point x="520" y="331"/>
      <point x="527" y="358" type="qcurve" smooth="yes"/>
      <point x="813" y="1456" type="line"/>
      <point x="1014" y="1456" type="line"/>
      <point x="1294" y="358" type="line" smooth="yes"/>
      <point x="1301" y="331"/>
      <point x="1314" y="260"/>
      <point x="1314" y="244" type="qcurve"/>
      <point x="1320" y="244" type="line"/>
      <point x="1320" y="261"/>
      <point x="1331" y="330"/>
      <point x="1337" y="358" type="qcurve" smooth="yes"/>
      <point x="1578" y="1456" type="line"/>
      <point x="1764" y="1456" type="line"/>
      <point x="1418" y="-10" type="line"/>
      <point x="1223" y="-10" type="line"/>
      <point x="935" y="1081" type="line" smooth="yes"/>
      <point x="928" y="1109"/>
      <point x="914" y="1174"/>
      <point x="914" y="1195" type="qcurve"/>
      <point x="908" y="1195" type="line"/>
      <point x="908" y="1174"/>
      <point x="896" y="1108"/>
      <point x="889" y="1081" type="qcurve" smooth="yes"/>
      <point x="596" y="-10" type="line"/>
      <point x="401" y="-10" type="line"/>
    </contour>
  </outline>
</glyph>
<glyph name="Y" format="1">
  <advance width="998"/>
  <unicode hex="0059"/>
  <outline>
    <contour>
      <point x="472" y="0" type="line"/>
      <point x="472" y="600" type="line"/>
      <point x="15" y="1456" type="line"/>
      <point x="77" y="1456" type="line"/>
      <point x="443" y="765" type="line"/>
      <point x="459" y="735"/>
      <point x="486" y="675"/>
      <point x="497" y="645" type="qcurve"/>
      <point x="503" y="645" type="line"/>
      <point x="514" y="675"/>
      <point x="541" y="735"/>
      <point x="557" y="765" type="qcurve"/>
      <point x="925" y="1456" type="line"/>
      <point x="983" y="1456" type="line"/>
      <point x="526" y="600" type="line"/>
      <point x="526" y="0" type="line"/>
    </contour>
    <contour>
      <point x="500" y="1432" type="move" name="top"/>
    </contour>
  </outline>
</glyph>
<glyph name="a" format="1">
  <advance width="842"/>
  <unicode hex="0061"/>
  <outline>
    <contour>
      <point x="90" y="280" type="qcurve" smooth="yes"/>
      <point x="90" y="130"/>
      <point x="228" y="-20"/>
      <point x="348" y="-20" type="qcurve" smooth="yes"/>
      <point x="458" y="-20"/>
      <point x="613" y="110"/>
      <point x="648" y="175" type="qcurve"/>
      <point x="652" y="127"/>
      <point x="673" y="30"/>
      <point x="690" y="0" type="qcurve"/>
      <point x="738" y="0" type="line"/>
      <point x="738" y="16" type="line"/>
      <point x="720" y="60"/>
      <point x="700" y="175"/>
      <point x="700" y="240" type="qcurve" smooth="yes"/>
      <point x="700" y="720" type="line" smooth="yes"/>
      <point x="700" y="900"/>
      <point x="560" y="1082"/>
      <point x="433" y="1082" type="qcurve" smooth="yes"/>
      <point x="303" y="1082"/>
      <point x="155" y="895"/>
      <point x="155" y="770" type="qcurve" smooth="yes"/>
      <point x="155" y="765" type="line"/>
      <point x="205" y="765" type="line"/>
      <point x="205" y="770" type="line" smooth="yes"/>
      <point x="205" y="874"/>
      <point x="308" y="1032"/>
      <point x="428" y="1032" type="qcurve" smooth="yes"/>
      <point x="548" y="1032"/>
      <point x="646" y="859"/>
      <point x="646" y="720" type="qcurve" smooth="yes"/>
      <point x="646" y="598" type="line"/>
      <point x="408" y="598" type="line" smooth="yes"/>
      <point x="269" y="598"/>
      <point x="90" y="425"/>
    </contour>
    <contour>
      <point x="144" y="280" type="qcurve" smooth="yes"/>
      <point x="144" y="400"/>
      <point x="288" y="548"/>
      <point x="428" y="548" type="qcurve" smooth="yes"/>
      <point x="646" y="548" type="line"/>
      <point x="646" y="330" type="line"/>
      <point x="646" y="220"/>
      <point x="468" y="30"/>
      <point x="358" y="30" type="qcurve" smooth="yes"/>
      <point x="248" y="30"/>
      <point x="144" y="160"/>
    </contour>
    <contour>
      <point x="431" y="1052" type="move" name="top"/>
    </contour>
  </outline>
</glyph>
<glyph name="m" format="1">
  <advance width="1368"/>
  <unicode hex="006D"/>
  <outline>
    <contour>
      <point x="148" y="0" type="line"/>
      <point x="202" y="0" type="line"/>
      <point x="202" y="844" type="line"/>
      <point x="241" y="921"/>
      <point x="369" y="1022"/>
      <point x="455" y="1022" type="qcurve" smooth="yes"/>
      <point x="554" y="1022"/>
      <point x="662" y="910"/>
      <point x="662" y="781" type="qcurve" smooth="yes"/>
      <point x="662" y="0" type="line"/>
      <point x="716" y="0" type="line"/>
      <point x="716" y="844" type="line"/>
      <point x="755" y="921"/>
      <point x="883" y="1022"/>
      <point x="969" y="1022" type="qcurve" smooth="yes"/>
      <point x="1068" y="1022"/>
      <point x="1176" y="910"/>
      <point x="1176" y="781" type="qcurve" smooth="yes"/>
      <point x="1176" y="0" type="line"/>
      <point x="1230" y="0" type="line"/>
      <point x="1230" y="779" type="line" smooth="yes"/>
      <point x="1230" y="937"/>
      <point x="1094" y="1072"/>
      <point x="979" y="1072" type="qcurve" smooth="yes"/>
      <point x="892" y="1072"/>
      <point x="753" y="985"/>
      <point x="704" y="904" type="qcurve"/>
      <point x="702" y="904" type="line"/>
      <point x="679" y="985"/>
      <point x="555" y="1072"/>
      <point x="465" y="1072" type="qcurve" smooth="yes"/>
      <point x="378" y="1072"/>
      <point x="242" y="985"/>
      <point x="198" y="917" type="qcurve"/>
      <point x="196" y="917" type="line"/>
      <point x="196" y="1052" type="line"/>
      <point x="148" y="1052" type="line"/>
    </contour>
  </outline>
</glyph>
<glyph name="s" format="1">
  <advance width="1011"/>
  <unicode hex="0073"/>
  <outline>
    <contour>
      <point x="80" y="312" type="line"/>
      <point x="80" y="309" type="line" smooth="yes"/>
      <point x="80" y="157"/>
      <point x="305" y="-30"/>
      <point x="511" y="-30" type="qcurve" smooth="yes"/>
      <point x="701" y="-30"/>
      <point x="931" y="148"/>
      <point x="931" y="289" type="qcurve" smooth="yes"/>
      <point x="931" y="432"/>
      <point x="742" y="584"/>
      <point x="555" y="625" type="qcurve" smooth="yes"/>
      <point x="406" y="658"/>
      <point x="303" y="734"/>
      <point x="303" y="788" type="qcurve" smooth="yes"/>
      <point x="303" y="848"/>
      <point x="401" y="932"/>
      <point x="508" y="932" type="qcurve" smooth="yes"/>
      <point x="616" y="932"/>
      <point x="725" y="822"/>
      <point x="725" y="759" type="qcurve" smooth="yes"/>
      <point x="725" y="757" type="line"/>
      <point x="910" y="757" type="line"/>
      <point x="910" y="760" type="line" smooth="yes"/>
      <point x="910" y="898"/>
      <point x="695" y="1084"/>
      <point x="508" y="1084" type="qcurve" smooth="yes"/>
      <point x="327" y="1084"/>
      <point x="117" y="897"/>
      <point x="117" y="770" type="qcurve" smooth="yes"/>
      <point x="117" y="647"/>
      <point x="313" y="497"/>
      <point x="497" y="459" type="qcurve" smooth="yes"/>
      <point x="657" y="426"/>
      <point x="746" y="335"/>
      <point x="746" y="275" type="qcurve" smooth="yes"/>
      <point x="746" y="209"/>
      <point x="626" y="121"/>
      <point x="513" y="121" type="qcurve" smooth="yes"/>
      <point x="408" y="121"/>
      <point x="266" y="216"/>
      <point x="266" y="307" type="qcurve" smooth="yes"/>
      <point x="266" y="312" type="line"/>
    </contour>
  </outline>
</glyph>
<glyph name="x" format="1">
  <advance width="822"/>
  <unicode hex="0078"/>
  <outline>
    <contour>
      <point x="20" y="0" type="line"/>
      <point x="82" y="0" type="line"/>
      <point x="424" y="514" type="line"/>
      <point x="430" y="514" type="line"/>
      <point x="782" y="1052" type="line"/>
      <point x="720" y="1052" type="line"/>
      <point x="398" y="552" type="line"/>
      <point x="392" y="552" type="line"/>
    </contour>
    <contour>
      <point x="40" y="1052" type="line"/>
      <point x="392" y="514" type="line"/>
      <point x="396" y="514" type="line"/>
      <point x="737" y="0" type="line"/>
      <point x="802" y="0" type="line"/>
      <point x="430" y="552" type="line"/>
      <point x="426" y="552" type="line"/>
      <point x="105" y="1052" type="line"/>
    </contour>
  </outline>
</glyph>
<glyph name="braceright" format="1">
  <advance width="693"/>
  <unicode hex="007D"/>
  <outline>
    <contour>
      <point x="417" y="335" type="qcurve" smooth="yes"/>
      <point x="467" y="123" type="line" smooth="yes"/>
      <point x="504" y="-31"/>
      <point x="228" y="-312"/>
      <point x="22" y="-312" type="qcurve"/>
      <point x="22" y="-166" type="line"/>
      <point x="160" y="-166"/>
      <point x="309" y="2"/>
      <point x="281" y="123" type="qcurve" smooth="yes"/>
      <point x="231" y="335" type="line" smooth="yes"/>
      <point x="211" y="419"/>
      <point x="284" y="556"/>
      <point x="381" y="579" type="qcurve"/>
      <point x="283" y="607"/>
      <point x="210" y="739"/>
      <point x="231" y="823" type="qcurve" smooth="yes"/>
      <point x="281" y="1025" type="line" smooth="yes"/>
      <point x="311" y="1146"/>
      <point x="160" y="1315"/>
      <point x="22" y="1315" type="qcurve"/>
      <point x="22" y="1460" type="line"/>
      <point x="228" y="1460"/>
      <point x="505" y="1179"/>
      <point x="467" y="1025" type="qcurve" smooth="yes"/>
      <point x="417" y="823" type="line" smooth="yes"/>
      <point x="391" y="716"/>
      <point x="517" y="645"/>
      <point x="629" y="645" type="qcurve"/>
      <point x="629" y="513" type="line"/>
      <point x="517" y="513"/>
      <point x="392" y="442"/>
    </contour>
  </outline>
</glyph>
<glyph name="brokenbar" format="1">
  <advance width="593"/>
  <unicode hex="00A6"/>
  <outline>
    <contour>
      <point x="209" y="-421" type="line"/>
      <point x="209" y="419" type="line"/>
      <point x="384" y="419" type="line"/>
      <point x="384" y="-421" type="line"/>
    </contour>
    <contour>
      <point x="209" y="616" type="line"/>
      <point x="209" y="1456" type="line"/>
      <point x="384" y="1456" type="line"/>
      <point x="384" y="616" type="line"/>
    </contour>
  </outline>
</glyph>
<glyph name="ordfeminine" format="1">
  <advance width="680"/>
  <unicode hex="00AA"/>
  <outline>
    <contour>
      <point x="66" y="850" type="qcurve" smooth="yes"/>
      <point x="66" y="734"/>
      <point x="187" y="611"/>
      <point x="274" y="611" type="qcurve" smooth="yes"/>
      <point x="368" y="611"/>
      <point x="481" y="705"/>
      <point x="513" y="760" type="qcurve"/>
      <point x="517" y="724"/>
      <point x="533" y="649"/>
      <point x="545" y="627" type="qcurve"/>
      <point x="590" y="627" type="line"/>
      <point x="590" y="639" type="line"/>
      <point x="576" y="674"/>
      <point x="560" y="764"/>
      <point x="560" y="815" type="qcurve" smooth="yes"/>
      <point x="560" y="1192" type="line" smooth="yes"/>
      <point x="560" y="1333"/>
      <point x="443" y="1476"/>
      <point x="343" y="1476" type="qcurve" smooth="yes"/>
      <point x="243" y="1476"/>
      <point x="114" y="1333"/>
      <point x="114" y="1222" type="qcurve" smooth="yes"/>
      <point x="114" y="1216" type="line"/>
      <point x="164" y="1216" type="line"/>
      <point x="164" y="1222" type="line" smooth="yes"/>
      <point x="164" y="1305"/>
      <point x="249" y="1430"/>
      <point x="339" y="1430" type="qcurve" smooth="yes"/>
      <point x="429" y="1430"/>
      <point x="510" y="1297"/>
      <point x="510" y="1192" type="qcurve" smooth="yes"/>
      <point x="510" y="1095" type="line"/>
      <point x="323" y="1095" type="line" smooth="yes"/>
      <point x="211" y="1095"/>
      <point x="66" y="967"/>
    </contour>
    <contour>
      <point x="116" y="858" type="qcurve" smooth="yes"/>
      <point x="116" y="946"/>
      <point x="229" y="1052"/>
      <point x="339" y="1052" type="qcurve" smooth="yes"/>
      <point x="510" y="1052" type="line"/>
      <point x="510" y="873" type="line"/>
      <point x="510" y="795"/>
      <point x="370" y="657"/>
      <point x="284" y="657" type="qcurve" smooth="yes"/>
      <point x="198" y="657"/>
      <point x="116" y="763"/>
    </contour>
  </outline>
</glyph>
<glyph name="degree" format="1">
  <advance width="880"/>
  <unicode hex="00B0"/>
  <outline>
    <contour>
      <point x="120" y="1156" type="qcurve" smooth="yes"/>
      <point x="120" y="1018"/>
      <point x="307" y="836"/>
      <point x="440" y="836" type="qcurve" smooth="yes"/>
      <point x="573" y="836"/>
      <point x="760" y="1018"/>
      <point x="760" y="1156" type="qcurve" smooth="yes"/>
      <point x="760" y="1294"/>
      <point x="573" y="1476"/>
      <point x="440" y="1476" type="qcurve" smooth="yes"/>
      <point x="307" y="1476"/>
      <point x="120" y="1294"/>
    </contour>
    <contour>
      <point x="270" y="1156" type="qcurve" smooth="yes"/>
      <point x="270" y="1234"/>
      <point x="366" y="1336"/>
      <point x="440" y="1336" type="qcurve" smooth="yes"/>
      <point x="514" y="1336"/>
      <point x="610" y="1234"/>
      <point x="610" y="1156" type="qcurve" smooth="yes"/>
      <point x="610" y="1078"/>
      <point x="514" y="976"/>
      <point x="440" y="976" type="qcurve" smooth="yes"/>
      <point x="366" y="976"/>
      <point x="270" y="1078"/>
    </contour>
  </outline>
</glyph>
<glyph name="multiply" format="1">
  <advance width="1170"/>
  <unicode hex="00D7"/>
  <outline>
    <contour>
      <point x="137" y="325" type="line"/>
      <point x="916" y="1120" type="line"/>
      <point x="1029" y="1002" type="line"/>
      <point x="250" y="208" type="line"/>
    </contour>
    <contour>
      <point x="139" y="1003" type="line"/>
      <point x="254" y="1123" type="line"/>
      <point x="1033" y="328" type="line"/>
      <point x="918" y="209" type="line"/>
    </contour>
  </outline>
</glyph>
<glyph name="oslash" format="1">
  <advance width="890"/>
  <unicode hex="00F8"/>
  <outline>
    <contour>
      <point x="85" y="510" type="line" smooth="yes"/>
      <point x="85" y="272"/>
      <point x="281" y="-30"/>
      <point x="445" y="-30" type="qcurve" smooth="yes"/>
      <point x="609" y="-30"/>
      <point x="805" y="272"/>
      <point x="805" y="510" type="qcurve" smooth="yes"/>
      <point x="805" y="542" type="line" smooth="yes"/>
      <point x="805" y="780"/>
      <point x="609" y="1082"/>
      <point x="445" y="1082" type="qcurve" smooth="yes"/>
      <point x="281" y="1082"/>
      <point x="85" y="780"/>
      <point x="85" y="542" type="qcurve" smooth="yes"/>
    </contour>
    <contour>
      <point x="139" y="542" type="line" smooth="yes"/>
      <point x="139" y="748"/>
      <point x="295" y="1032"/>
      <point x="445" y="1032" type="qcurve" smooth="yes"/>
      <point x="595" y="1032"/>
      <point x="751" y="748"/>
      <point x="751" y="542" type="qcurve" smooth="yes"/>
      <point x="751" y="510" type="line" smooth="yes"/>
      <point x="751" y="304"/>
      <point x="595" y="20"/>
      <point x="445" y="20" type="qcurve" smooth="yes"/>
      <point x="295" y="20"/>
      <point x="139" y="304"/>
      <point x="139" y="510" type="qcurve" smooth="yes"/>
    </contour>
    <contour>
      <point x="61" y="-120" type="line"/>
      <point x="117" y="-120" type="line"/>
      <point x="220" y="68" type="line"/>
      <point x="220" y="68" type="line"/>
      <point x="471" y="526" type="line"/>
      <point x="419" y="526" type="line"/>
      <point x="212" y="150" type="line"/>
      <point x="212" y="150" type="line"/>
    </contour>
    <contour>
      <point x="419" y="526" type="line"/>
      <point x="471" y="526" type="line"/>
      <point x="678" y="902" type="line"/>
      <point x="678" y="902" type="line"/>
      <point x="829" y="1172" type="line"/>
      <point x="773" y="1172" type="line"/>
      <point x="670" y="984" type="line"/>
      <point x="670" y="984" type="line"/>
    </contour>
  </outline>
</glyph>
<glyph name="thorn" format="1">
  <advance width="902"/>
  <unicode hex="00FE"/>
  <outline>
    <contour>
      <point x="148" y="-416" type="line"/>
      <point x="202" y="-416" type="line"/>
      <point x="202" y="124" type="line"/>
      <point x="247" y="61"/>
      <point x="388" y="-20"/>
      <point x="483" y="-20" type="qcurve" smooth="yes"/>
      <point x="643" y="-20"/>
      <point x="817" y="280"/>
      <point x="817" y="510" type="qcurve" smooth="yes"/>
      <point x="817" y="542" type="line" smooth="yes"/>
      <point x="817" y="772"/>
      <point x="643" y="1072"/>
      <point x="483" y="1072" type="qcurve" smooth="yes"/>
      <point x="388" y="1072"/>
      <point x="238" y="978"/>
      <point x="202" y="915" type="qcurve"/>
      <point x="202" y="1536" type="line"/>
      <point x="148" y="1536" type="line"/>
    </contour>
    <contour>
      <point x="202" y="212" type="qcurve"/>
      <point x="202" y="840" type="line"/>
      <point x="233" y="911"/>
      <point x="373" y="1022"/>
      <point x="473" y="1022" type="qcurve" smooth="yes"/>
      <point x="623" y="1022"/>
      <point x="763" y="745"/>
      <point x="763" y="542" type="qcurve" smooth="yes"/>
      <point x="763" y="510" type="line" smooth="yes"/>
      <point x="763" y="307"/>
      <point x="623" y="30"/>
      <point x="473" y="30" type="qcurve" smooth="yes"/>
      <point x="373" y="30"/>
      <point x="233" y="141"/>
    </contour>
  </outline>
</glyph>
<glyph name="oe" format="1">
  <advance width="1414"/>
  <unicode hex="0153"/>
  <outline>
    <contour>
      <point x="85" y="510" type="line" smooth="yes"/>
      <point x="85" y="272"/>
      <point x="276" y="-30"/>
      <point x="435" y="-30" type="qcurve" smooth="yes"/>
      <point x="552" y="-30"/>
      <point x="720" y="138"/>
      <point x="757" y="279" type="qcurve"/>
      <point x="793" y="138"/>
      <point x="963" y="-30"/>
      <point x="1091" y="-30" type="qcurve" smooth="yes"/>
      <point x="1187" y="-30"/>
      <point x="1316" y="61"/>
      <point x="1356" y="120" type="qcurve"/>
      <point x="1316" y="155" type="line"/>
      <point x="1272" y="91"/>
      <point x="1168" y="20"/>
      <point x="1091" y="20" type="qcurve" smooth="yes"/>
      <point x="934" y="20"/>
      <point x="785" y="302"/>
      <point x="785" y="510" type="qcurve" smooth="yes"/>
      <point x="785" y="542" type="line" smooth="yes"/>
      <point x="785" y="750"/>
      <point x="926" y="1032"/>
      <point x="1061" y="1032" type="qcurve" smooth="yes"/>
      <point x="1196" y="1032"/>
      <point x="1308" y="770"/>
      <point x="1308" y="600" type="qcurve"/>
      <point x="1308" y="582" type="line"/>
      <point x="758" y="582" type="line"/>
      <point x="758" y="534" type="line"/>
      <point x="1362" y="534" type="line"/>
      <point x="1362" y="560" type="line" smooth="yes"/>
      <point x="1362" y="800"/>
      <point x="1206" y="1082"/>
      <point x="1061" y="1082" type="qcurve" smooth="yes"/>
      <point x="952" y="1082"/>
      <point x="793" y="914"/>
      <point x="757" y="773" type="qcurve"/>
      <point x="720" y="914"/>
      <point x="552" y="1082"/>
      <point x="435" y="1082" type="qcurve" smooth="yes"/>
      <point x="276" y="1082"/>
      <point x="85" y="780"/>
      <point x="85" y="542" type="qcurve" smooth="yes"/>
    </contour>
    <contour>
      <point x="139" y="510" type="qcurve" smooth="yes"/>
      <point x="139" y="542" type="line" smooth="yes"/>
      <point x="139" y="748"/>
      <point x="290" y="1032"/>
      <point x="435" y="1032" type="qcurve" smooth="yes"/>
      <point x="580" y="1032"/>
      <point x="731" y="748"/>
      <point x="731" y="542" type="qcurve" smooth="yes"/>
      <point x="731" y="510" type="line" smooth="yes"/>
      <point x="731" y="304"/>
      <point x="580" y="20"/>
      <point x="435" y="20" type="qcurve" smooth="yes"/>
      <point x="290" y="20"/>
      <point x="139" y="304"/>
    </contour>
  </outline>
</glyph>
<glyph name="tilde" format="1">
  <advance width="1024"/>
  <unicode hex="02DC"/>
  <outline>
    <contour>
      <point x="234" y="1150" type="qcurve"/>
      <point x="284" y="1148" type="line"/>
      <point x="284.0" y="1235.7373737373737"/>
      <point x="330.0" y="1350.0"/>
      <point x="380" y="1350" type="qcurve" smooth="yes"/>
      <point x="430.0" y="1350.0"/>
      <point x="578.0" y="1160.0"/>
      <point x="646" y="1160" type="qcurve" smooth="yes"/>
      <point x="714" y="1160"/>
      <point x="792" y="1302"/>
      <point x="792" y="1410" type="qcurve"/>
      <point x="742" y="1412" type="line"/>
      <point x="742.0" y="1323.8545454545456"/>
      <point x="696.0" y="1210.0"/>
      <point x="646" y="1210" type="qcurve" smooth="yes"/>
      <point x="596.0" y="1210.0"/>
      <point x="448" y="1400"/>
      <point x="380" y="1400" type="qcurve" smooth="yes"/>
      <point x="312" y="1400"/>
      <point x="234" y="1258"/>
    </contour>
    <contour>
      <point x="512.0" y="1052.0" type="move" name="_top"/>
    </contour>
  </outline>
</glyph>
<glyph name="dagger" format="1">
  <advance width="1050"/>
  <unicode hex="2020"/>
  <outline>
    <contour>
      <point x="505" y="-220" type="line"/>
      <point x="545" y="-220" type="line"/>
      <point x="550" y="524" type="line"/>
      <point x="545" y="1020" type="line"/>
      <point x="555" y="1516" type="line"/>
      <point x="495" y="1516" type="line"/>
      <point x="505" y="1020" type="line"/>
      <point x="500" y="524" type="line"/>
    </contour>
    <contour>
      <point x="70" y="1000" type="line"/>
      <point x="525" y="1005" type="line"/>
      <point x="980" y="1000" type="line"/>
      <point x="980" y="1050" type="line"/>
      <point x="525" y="1045" type="line"/>
      <point x="70" y="1050" type="line"/>
    </contour>
  </outline>
</glyph>
<glyph name="fraction" format="1">
  <advance width="813"/>
  <unicode hex="2044"/>
  <outline>
    <contour>
      <point x="30" y="174" type="line"/>
      <point x="72" y="146" type="line"/>
      <point x="783" y="1282" type="line"/>
      <point x="741" y="1310" type="line"/>
    </contour>
  </outline>
</glyph>
<glyph name="won" format="1">
  <advance width="1222"/>
  <unicode hex="20A9"/>
  <outline>
    <contour>
      <point x="326" y="-10" type="line"/>
      <point x="386" y="-10" type="line"/>
      <point x="575" y="570" type="line" smooth="yes"/>
      <point x="586" y="603"/>
      <point x="602" y="665"/>
      <point x="610" y="698" type="qcurve"/>
      <point x="614" y="698" type="line"/>
      <point x="622" y="665"/>
      <point x="638" y="603"/>
      <point x="649" y="570" type="qcurve" smooth="yes"/>
      <point x="838" y="-10" type="line"/>
      <point x="896" y="-10" type="line"/>
      <point x="1122" y="1456" type="line"/>
      <point x="1068" y="1456" type="line"/>
      <point x="880" y="218" type="line" smooth="yes"/>
      <point x="875" y="184"/>
      <point x="866" y="123"/>
      <point x="863" y="90" type="qcurve"/>
      <point x="859" y="90" type="line"/>
      <point x="852" y="123"/>
      <point x="831" y="184"/>
      <point x="820" y="218" type="qcurve" smooth="yes"/>
      <point x="645" y="756" type="line"/>
      <point x="583" y="756" type="line"/>
      <point x="408" y="218" type="line" smooth="yes"/>
      <point x="397" y="184"/>
      <point x="376" y="123"/>
      <point x="369" y="90" type="qcurve"/>
      <point x="365" y="90" type="line"/>
      <point x="362" y="123"/>
      <point x="353" y="184"/>
      <point x="348" y="218" type="qcurve" smooth="yes"/>
      <point x="160" y="1456" type="line"/>
      <point x="100" y="1456" type="line"/>
    </contour>
    <contour>
      <point x="30" y="906" type="line"/>
      <point x="1192" y="906" type="line"/>
      <point x="1192" y="956" type="line"/>
      <point x="30" y="956" type="line"/>
    </contour>
    <contour>
      <point x="20" y="1216" type="line"/>
      <point x="1202" y="1216" type="line"/>
      <point x="1202" y="1266" type="line"/>
      <point x="20" y="1266" type="line"/>
    </contour>
  </outline>
</glyph>
<glyph name="numero" format="1">
  <advance width="2010"/>
  <unicode hex="2116"/>
  <outline>
    <contour>
      <point x="170" y="0" type="line"/>
      <point x="224" y="0" type="line"/>
      <point x="224" y="1215" type="line"/>
      <point x="224" y="1245"/>
      <point x="220" y="1320"/>
      <point x="216" y="1350" type="qcurve"/>
      <point x="226" y="1350" type="line"/>
      <point x="240" y="1325"/>
      <point x="274" y="1265"/>
      <point x="294" y="1235" type="qcurve"/>
      <point x="956" y="0" type="line"/>
      <point x="1022" y="0" type="line"/>
      <point x="1022" y="1456" type="line"/>
      <point x="968" y="1456" type="line"/>
      <point x="968" y="241" type="line"/>
      <point x="968" y="211"/>
      <point x="972" y="136"/>
      <point x="976" y="106" type="qcurve"/>
      <point x="966" y="106" type="line"/>
      <point x="952" y="131"/>
      <point x="918" y="191"/>
      <point x="898" y="221" type="qcurve"/>
      <point x="236" y="1456" type="line"/>
      <point x="170" y="1456" type="line"/>
    </contour>
    <contour>
      <point x="1182" y="200" type="line"/>
      <point x="1182" y="250" type="line"/>
      <point x="1890" y="250" type="line"/>
      <point x="1890" y="200" type="line"/>
    </contour>
    <contour>
      <point x="1182" y="964" type="qcurve" smooth="yes"/>
      <point x="1182" y="984" type="line" smooth="yes"/>
      <point x="1182" y="1196"/>
      <point x="1368" y="1476"/>
      <point x="1536" y="1476" type="qcurve" smooth="yes"/>
      <point x="1704" y="1476"/>
      <point x="1890" y="1196"/>
      <point x="1890" y="984" type="qcurve" smooth="yes"/>
      <point x="1890" y="964" type="line" smooth="yes"/>
      <point x="1890" y="752"/>
      <point x="1704" y="472"/>
      <point x="1536" y="472" type="qcurve" smooth="yes"/>
      <point x="1368" y="472"/>
      <point x="1182" y="752"/>
    </contour>
    <contour>
      <point x="1236" y="964" type="line" smooth="yes"/>
      <point x="1236" y="771"/>
      <point x="1388" y="522"/>
      <point x="1536" y="522" type="qcurve" smooth="yes"/>
      <point x="1684" y="522"/>
      <point x="1836" y="771"/>
      <point x="1836" y="964" type="qcurve" smooth="yes"/>
      <point x="1836" y="984" type="line" smooth="yes"/>
      <point x="1836" y="1177"/>
      <point x="1684" y="1426"/>
      <point x="1536" y="1426" type="qcurve" smooth="yes"/>
      <point x="1388" y="1426"/>
      <point x="1236" y="1177"/>
      <point x="1236" y="984" type="qcurve" smooth="yes"/>
    </contour>
  </outline>
</glyph>
<glyph name="fl" format="1">
  <advance width="895"/>
  <unicode hex="FB02"/>
  <outline>
    <contour>
      <point x="196" y="0" type="line"/>
      <point x="250" y="0" type="line"/>
      <point x="250" y="1022" type="line"/>
      <point x="250" y="1032" type="line"/>
      <point x="250" y="1200" type="line" smooth="yes"/>
      <point x="250" y="1355"/>
      <point x="358" y="1510"/>
      <point x="468" y="1510" type="qcurve" smooth="yes"/>
      <point x="540" y="1510"/>
      <point x="670" y="1474"/>
      <point x="718" y="1452" type="qcurve"/>
      <point x="738" y="1496" type="line"/>
      <point x="680" y="1520"/>
      <point x="540" y="1556"/>
      <point x="468" y="1556" type="qcurve" smooth="yes"/>
      <point x="340" y="1556"/>
      <point x="196" y="1374"/>
      <point x="196" y="1200" type="qcurve" smooth="yes"/>
    </contour>
    <contour>
      <point x="25" y="1002" type="line"/>
      <point x="498" y="1002" type="line"/>
      <point x="498" y="1052" type="line"/>
      <point x="228" y="1052" type="line"/>
      <point x="218" y="1052" type="line"/>
      <point x="25" y="1052" type="line"/>
    </contour>
    <contour>
      <point x="684" y="0" type="line"/>
      <point x="738" y="0" type="line"/>
      <point x="738" y="1496" type="line"/>
      <point x="684" y="1496" type="line"/>
    </contour>
  </outline>
</glyph>
<glyph name="bitcoin" format="1">
  <advance width="991"/>
  <outline>
    <contour>
      <point x="170" y="0" type="line"/>
      <point x="546" y="0" type="line" smooth="yes"/>
      <point x="706" y="0"/>
      <point x="891" y="206"/>
      <point x="891" y="392" type="qcurve" smooth="yes"/>
      <point x="891" y="544"/>
      <point x="770" y="734"/>
      <point x="671" y="762" type="qcurve"/>
      <point x="671" y="766" type="line"/>
      <point x="750" y="794"/>
      <point x="853" y="964"/>
      <point x="853" y="1094" type="qcurve" smooth="yes"/>
      <point x="853" y="1280"/>
      <point x="676" y="1456"/>
      <point x="516" y="1456" type="qcurve" smooth="yes"/>
      <point x="170" y="1456" type="line"/>
    </contour>
    <contour>
      <point x="224" y="50" type="line"/>
      <point x="224" y="733" type="line"/>
      <point x="546" y="733" type="line" smooth="yes"/>
      <point x="696" y="733"/>
      <point x="836" y="548"/>
      <point x="836" y="392" type="qcurve" smooth="yes"/>
      <point x="836" y="236"/>
      <point x="696" y="50"/>
      <point x="546" y="50" type="qcurve" smooth="yes"/>
    </contour>
    <contour>
      <point x="224" y="783" type="line"/>
      <point x="224" y="1406" type="line"/>
      <point x="516" y="1406" type="line" smooth="yes"/>
      <point x="666" y="1406"/>
      <point x="798" y="1244"/>
      <point x="798" y="1094" type="qcurve" smooth="yes"/>
      <point x="798" y="948"/>
      <point x="666" y="783"/>
      <point x="516" y="783" type="qcurve" smooth="yes"/>
    </contour>
    <contour>
      <point x="40" y="420" type="line"/>
      <point x="195" y="420" type="line"/>
      <point x="199" y="420" type="line"/>
      <point x="504" y="420" type="line"/>
      <point x="504" y="470" type="line"/>
      <point x="199" y="470" type="line"/>
      <point x="195" y="470" type="line"/>
      <point x="40" y="470" type="line"/>
    </contour>
  </outline>
</glyph>
